<svg width="240" height="26" viewBox="0 0 240 26" fill="none" xmlns="http://www.w3.org/2000/svg">
<path d="M14.5074 0.0171509H25.7317V5.06705H13.7786C11.6212 5.06705 9.98526 5.46961 8.87088 6.27475C7.35323 7.08116 6.19186 8.63746 5.38673 10.9437C5.22396 11.6052 5.1345 12.2831 5.12002 12.9647C5.12002 14.923 5.84314 16.7644 7.28938 18.489C8.236 19.4147 9.125 20.0275 9.95649 20.3272C10.8681 20.745 12.1196 20.9539 13.711 20.9539H25.7317V26.0019H14.2745C11.3457 26.0019 9.17641 25.6412 7.76644 24.9199C4.61478 23.523 2.35715 21.2372 0.993557 18.0623C0.32796 16.4601 -0.0100577 14.7376 -2.7277e-05 12.9991C-2.7277e-05 9.13087 1.51132 5.829 4.53402 3.09357C6.51242 1.57091 8.30174 0.671802 9.90202 0.396226C10.7209 0.144779 12.2561 0.0184208 14.5074 0.0171509ZM12.338 10.5113H25.7317V15.5059H12.338V10.5113Z" fill="white"/>
<path d="M42.4987 12.0504V15.8107H29.5015V12.0504H42.4987Z" fill="white"/>
<path d="M43.5899 0.0361938H57.8494C63.0158 0.0361938 66.6013 2.32589 68.606 6.90527C69.098 8.2179 69.3451 9.61187 69.3348 11.016C69.3348 14.0639 68.1615 16.7308 65.815 19.0167C64.3687 20.3145 62.5963 21.192 60.4978 21.6492C59.6853 21.7653 58.8653 21.8195 58.0448 21.8112L48.7288 21.9197V25.9943H43.5542V16.786H57.6409C59.4791 16.786 60.8246 16.4374 61.6773 15.7402C62.7679 15.0316 63.5505 13.8886 64.0251 12.3114C64.1074 11.95 64.1545 11.5811 64.1659 11.2103V10.6675C64.1659 9.30862 63.5912 7.98661 62.4417 6.70144C61.2447 5.63343 59.9173 5.09879 58.4599 5.09752H43.5899V0.0361938Z" fill="white"/>
<path d="M71.998 0.0361938H77.1537V12.3152C77.1537 15.7529 78.4516 18.2528 81.0473 19.8148C82.1855 20.5768 83.6969 20.9577 85.5813 20.9577H97.777V26.0057H85.7557C82.5004 26.0057 79.8985 25.3142 77.9501 23.9313C77.4079 23.6519 76.5928 22.9769 75.5047 21.9064C74.0947 20.2961 73.1406 18.6737 72.6422 17.0394C72.2165 15.8012 72.003 14.0277 72.0018 11.719L71.998 0.0361938Z" fill="white"/>
<path d="M114.384 0H126.217V26H121.083V5.06704L116.497 5.08418H115.395C112.834 5.08418 111.411 5.19276 111.127 5.40992C109.576 5.84399 108.211 6.78884 107.247 8.09583C106.109 9.74671 105.54 11.3875 105.54 13.0181C105.54 15.0373 106.31 16.8945 107.852 18.5899C108.883 19.5881 109.773 20.1887 110.518 20.392C111.27 20.773 112.556 20.9635 114.376 20.9635H117.945V25.9943H113.671C110.494 25.9943 107.809 25.1466 105.616 23.4512C104.029 22.1813 102.968 21.0276 102.435 19.99C101.106 17.8514 100.443 15.664 100.443 13.4276V12.6657C100.443 9.54165 101.599 6.67477 103.911 4.06506C105.308 2.69099 106.452 1.82299 107.34 1.46106C108.184 1.01975 109.072 0.674754 109.991 0.432413C110.997 0.144138 112.462 0 114.384 0Z" fill="white"/>
<path d="M139.254 26V21.7444C137.189 21.1844 135.259 20.2024 133.581 18.8585C132.172 17.5733 131.253 16.5034 130.826 15.6488C130.233 14.6828 129.773 13.6395 129.457 12.5476C129.081 11.3462 128.894 9.71119 128.894 7.64247V0.0361938H134.049V7.87867C134.049 10.1645 134.488 11.926 135.364 13.1629C135.54 13.5591 136.109 14.1902 137.069 15.0564C138.397 16.1636 140.062 16.769 141.78 16.769C143.5 16.769 145.165 16.1636 146.493 15.0564C147.453 14.189 148.022 13.5578 148.2 13.1629C149.077 11.9247 149.514 10.1633 149.514 7.87867V0.0361938H154.67V7.64437C154.67 9.71309 154.482 11.3481 154.106 12.5495C153.802 13.6456 153.341 14.6904 152.738 15.6507C152.311 16.504 151.399 17.574 150.001 18.8604C148.316 20.201 146.38 21.182 144.311 21.7444V26H139.254Z" fill="white"/>
<path d="M171.839 0.0171509H183.058V5.06704H171.106C168.951 5.06704 167.315 5.46961 166.201 6.27475C164.683 7.08116 163.522 8.63746 162.717 10.9437C162.554 11.6052 162.465 12.2831 162.45 12.9647C162.45 14.923 163.172 16.7644 164.617 18.489C165.565 19.4147 166.454 20.0275 167.284 20.3272C168.197 20.7476 169.449 20.9584 171.041 20.9597H183.061V26.0076H171.604C168.678 26.0076 166.509 25.6469 165.098 24.9256C161.946 23.5287 159.688 21.2428 158.325 18.068C157.658 16.465 157.319 14.741 157.329 13.001C157.329 9.13277 158.841 5.83091 161.862 3.09547C163.844 1.57155 165.635 0.671802 167.236 0.396226C168.054 0.144779 169.588 0.0184208 171.839 0.0171509ZM169.671 10.5113H183.058V15.5059H169.671V10.5113Z" fill="white"/>
<path d="M185.777 0.0171509H202.24C205.15 0.0171509 207.426 0.900392 209.067 2.66687C209.703 3.23138 210.223 3.91754 210.597 4.68606C211.206 5.8623 211.535 7.16725 211.556 8.49587V9.23495C211.556 11.1399 210.742 12.9972 209.114 14.8068C208.072 15.8227 207.123 16.4717 206.271 16.7536C208.427 19.0877 209.505 22.1712 209.505 26.0038H204.333V25.6076C204.333 22.7706 203.201 20.5164 200.937 18.8452C199.644 17.9194 197.954 17.4565 195.866 17.4565H185.777V12.4409H202.559C204.397 12.4409 205.641 11.5215 206.294 9.68259C206.365 9.3016 206.412 8.99688 206.436 8.74537C206.436 7.72311 206.015 6.79733 205.174 5.96806C204.524 5.41827 203.708 5.11278 202.862 5.10324C202.862 5.05562 202.614 5.03085 202.111 5.03085H185.77L185.777 0.0171509Z" fill="white"/>
<path d="M222.365 0.0361976H239.626V5.36992H222.203C220.843 5.36992 220.008 6.0487 219.698 7.40626V7.78724C219.698 8.59238 220.143 9.26546 221.032 9.80643C221.303 9.91459 221.592 9.96954 221.884 9.96833H230.646C232.9 9.96833 234.429 10.2027 235.233 10.6713C237.226 11.5742 238.603 12.9508 239.365 14.8011C239.778 15.8639 239.995 16.9944 240.006 18.1366C240.006 20.7323 238.809 22.9198 236.415 24.699C235.655 25.177 234.827 25.5361 233.962 25.7638C233.274 25.92 232.13 25.9981 230.53 25.9981H214.246L214.227 20.6644H231.721C233.191 20.6644 234.13 19.931 234.538 18.4642L234.574 17.9785C234.574 16.9434 234.073 16.1497 233.072 15.5973C232.644 15.3903 232.175 15.2916 231.702 15.3097H221.872C219.3 15.3097 217.154 14.1667 215.437 11.8809C214.719 10.7305 214.329 9.40153 214.31 8.04059V7.33578C214.31 4.66892 215.59 2.55956 218.151 1.00769C219.206 0.358761 220.611 0.0349276 222.365 0.0361976Z" fill="white"/>
</svg>
